<svg width="20" height="20" viewBox="0 0 20 20" fill="none" xmlns="http://www.w3.org/2000/svg">
<path d="M8.1913 4.16667L6.52464 5.83333H3.33464V15.8333H16.668V5.83333H13.478L11.8113 4.16667H8.1913ZM7.5013 2.5H12.5013L14.168 4.16667H17.5013C17.7223 4.16667 17.9343 4.25446 18.0906 4.41074C18.2468 4.56702 18.3346 4.77899 18.3346 5V16.6667C18.3346 16.8877 18.2468 17.0996 18.0906 17.2559C17.9343 17.4122 17.7223 17.5 17.5013 17.5H2.5013C2.28029 17.5 2.06833 17.4122 1.91205 17.2559C1.75577 17.0996 1.66797 16.8877 1.66797 16.6667V5C1.66797 4.77899 1.75577 4.56702 1.91205 4.41074C2.06833 4.25446 2.28029 4.16667 2.5013 4.16667H5.83464L7.5013 2.5ZM10.0013 15C8.78573 15 7.61994 14.5171 6.7604 13.6576C5.90085 12.798 5.41797 11.6322 5.41797 10.4167C5.41797 9.20109 5.90085 8.0353 6.7604 7.17576C7.61994 6.31622 8.78573 5.83333 10.0013 5.83333C11.2169 5.83333 12.3827 6.31622 13.2422 7.17576C14.1018 8.0353 14.5846 9.20109 14.5846 10.4167C14.5846 11.6322 14.1018 12.798 13.2422 13.6576C12.3827 14.5171 11.2169 15 10.0013 15ZM10.0013 13.3333C10.7749 13.3333 11.5167 13.026 12.0637 12.4791C12.6107 11.9321 12.918 11.1902 12.918 10.4167C12.918 9.64312 12.6107 8.90125 12.0637 8.35427C11.5167 7.80729 10.7749 7.5 10.0013 7.5C9.22775 7.5 8.48589 7.80729 7.93891 8.35427C7.39193 8.90125 7.08464 9.64312 7.08464 10.4167C7.08464 11.1902 7.39193 11.9321 7.93891 12.4791C8.48589 13.026 9.22775 13.3333 10.0013 13.3333Z" fill="white"/>
</svg>
