<svg width="322" height="45" viewBox="0 0 322 45" fill="none" xmlns="http://www.w3.org/2000/svg">
<path d="M49.2776 18.6878C44.9075 14.4127 44.9075 7.48142 49.2776 3.20632C53.6477 -1.06877 60.733 -1.06878 65.1031 3.20632L88.7224 26.3122C93.0925 30.5873 93.0925 37.5186 88.7224 41.7937C84.3523 46.0688 77.267 46.0688 72.8969 41.7937L49.2776 18.6878Z" fill="white"/>
<path fill-rule="evenodd" clip-rule="evenodd" d="M3.27757 18.6878C-1.09253 14.4127 -1.09252 7.48142 3.27758 3.20632C7.64768 -1.06877 14.733 -1.06878 19.1031 3.20632L21.0201 5.08164C19.7543 5.11742 18.5915 5.13473 17.5318 5.13473C16.7237 5.13473 15.9709 5.11136 15.2719 5.06737C14.573 5.022 13.9293 5 13.3408 5C11.1362 5 9.34594 5.50593 7.96873 6.51916C6.59152 7.53101 5.9036 8.95118 5.9036 10.7783C5.9036 13.5086 7.3858 15.2656 10.3488 16.0507C9.81974 16.9044 9.34317 17.7169 8.9191 18.4854C8.49502 19.2553 8.08891 19.973 7.69936 20.6384C7.37988 21.1818 7.08248 21.6824 6.80759 22.1411L3.27757 18.6878ZM21.2877 5.73139L21.2492 5.30574L36.0421 19.7771C35.7007 19.7546 35.3452 19.7434 34.9756 19.7434C34.3429 19.7434 33.6412 19.7627 32.8718 19.8025C32.1024 19.8424 31.3053 19.8616 30.4806 19.8616C29.2554 19.8616 27.9997 19.8424 26.7123 19.8025L26.7427 20.4432L28.5979 21.0247C28.8272 21.1031 28.9473 21.2722 28.957 21.5306C28.9667 21.8579 28.9736 22.2249 28.9791 22.6319C28.9833 23.0388 28.986 23.4966 28.986 24.0025V36.0829C28.986 36.6796 28.9833 37.2226 28.9791 37.7134C28.9736 38.2056 28.9667 38.6497 28.957 39.047C28.946 39.2752 28.812 39.4292 28.5523 39.5089L26.7109 40.0602L26.7703 40.7009C28.037 40.6706 29.2955 40.6555 30.482 40.6555C31.6686 40.6555 32.9864 40.6706 34.4327 40.7009L34.4023 40.0602L32.3372 39.4347C32.0872 39.3549 31.9573 39.201 31.9476 38.9728C31.938 38.5947 31.9297 38.1685 31.9255 37.6914C31.9214 37.2144 31.9186 36.6782 31.9186 36.0829L31.92 36.0843V31.8389C32.7157 31.9283 33.4616 31.9736 34.1578 31.9736C36.6885 31.9736 38.6541 31.3811 40.0548 30.2001C41.3398 29.1155 42.0354 27.6304 42.1415 25.7439L42.7224 26.3122C47.0925 30.5873 47.0925 37.5186 42.7224 41.7937C38.3523 46.0688 31.267 46.0688 26.8969 41.7937L8.92605 24.2135C9.02353 24.0739 9.12113 23.9257 9.21885 23.7688C9.68437 23.0236 10.1651 22.1905 10.6637 21.2666C11.0022 20.67 11.3296 20.0623 11.6431 19.4409C11.9581 18.8209 12.2896 18.2091 12.6391 17.6028C12.7593 17.3938 12.8656 17.2179 12.9609 17.0735C13.0549 16.9292 13.1585 16.8123 13.2676 16.7229C13.3767 16.6336 13.5038 16.5731 13.6489 16.5373C13.7939 16.503 13.9762 16.4851 14.1959 16.4851H14.1973H16.0828V21.356C16.0828 21.9513 16.08 22.4875 16.0745 22.9645C16.069 23.4416 16.0621 23.8691 16.0524 24.2458C16.0317 24.5538 15.9018 24.7421 15.6629 24.8123L13.9569 25.3333L14.0163 25.974C15.1241 25.9437 16.2817 25.9286 17.518 25.9286C18.7543 25.9286 20.0127 25.9437 21.2891 25.974L21.2587 25.3333L19.4478 24.782C19.1881 24.7023 19.0527 24.5428 19.043 24.305C19.0334 23.8884 19.0251 23.4416 19.0209 22.9645C19.0154 22.4875 19.0126 21.9513 19.0126 21.356V9.35125C19.0126 8.83432 19.0154 8.37239 19.0209 7.96545C19.0251 7.55851 19.0334 7.18181 19.043 6.83398C19.0624 6.5659 19.1826 6.39267 19.4022 6.31294L21.2877 5.73139ZM16.0814 6.34181C15.3548 6.26207 14.6932 6.2222 14.095 6.2222C12.3987 6.2222 11.1555 6.5824 10.3654 7.30279C9.57524 8.02319 9.18156 9.15602 9.18156 10.7054C9.18156 12.3346 9.61945 13.5251 10.498 14.2799C11.3765 15.0347 12.7123 15.4114 14.5067 15.4114C15.1145 15.4114 15.6394 15.4072 16.0814 15.3962V6.34318V6.34181ZM33.9838 30.7652C33.3055 30.7652 32.6176 30.7061 31.9186 30.5865H31.9173V21.0838C32.5969 21.0041 33.2696 20.9642 33.9382 20.9642C35.6441 20.9642 36.8929 21.3615 37.6872 22.1562C38.4801 22.9508 38.8765 24.0892 38.8765 25.776C38.8765 27.4629 38.4607 28.7167 37.6278 29.5361C36.7948 30.3555 35.5806 30.7652 33.9838 30.7652Z" fill="white"/>
<path d="M187.278 18.6878C182.907 14.4127 182.907 7.48142 187.278 3.20632C191.648 -1.06877 198.733 -1.06878 203.103 3.20632L226.722 26.3122C231.093 30.5873 231.093 37.5186 226.722 41.7937C222.352 46.0688 215.267 46.0688 210.897 41.7937L187.278 18.6878Z" fill="#2B386D"/>
<path d="M279.278 18.6878C274.907 14.4127 274.907 7.48142 279.278 3.20632C283.648 -1.06877 290.733 -1.06878 295.103 3.20632L318.722 26.3122C323.093 30.5873 323.093 37.5186 318.722 41.7937C314.352 46.0688 307.267 46.0688 302.897 41.7937L279.278 18.6878Z" fill="#802836"/>
<path d="M233.278 18.6878C228.907 14.4127 228.907 7.48142 233.278 3.20632C237.648 -1.06877 244.733 -1.06878 249.103 3.20632L272.722 26.3122C277.093 30.5873 277.093 37.5186 272.722 41.7937C268.352 46.0688 261.267 46.0688 256.897 41.7937L233.278 18.6878Z" fill="#802836"/>
<path d="M141.278 18.6878C136.907 14.4127 136.907 7.48142 141.278 3.20632C145.648 -1.06877 152.733 -1.06878 157.103 3.20632L180.722 26.3122C185.093 30.5873 185.093 37.5186 180.722 41.7937C176.352 46.0688 169.267 46.0688 164.897 41.7937L141.278 18.6878Z" fill="#802836"/>
<path d="M95.2776 18.6878C90.9075 14.4127 90.9075 7.48142 95.2776 3.20632C99.6477 -1.06877 106.733 -1.06878 111.103 3.20632L134.722 26.3122C139.093 30.5873 139.093 37.5186 134.722 41.7937C130.352 46.0688 123.267 46.0688 118.897 41.7937L95.2776 18.6878Z" fill="#802836"/>
</svg>
