<svg width="276" height="90" viewBox="0 0 276 90" fill="none" xmlns="http://www.w3.org/2000/svg">
<path d="M95.2776 63.6879C90.9075 59.4128 90.9075 52.4815 95.2776 48.2064C99.6477 43.9313 106.733 43.9313 111.103 48.2064L134.722 71.3123C139.093 75.5874 139.093 82.5187 134.722 86.7938C130.352 91.0689 123.267 91.0689 118.897 86.7938L95.2776 63.6879Z" fill="white"/>
<path d="M49.2776 63.6879C44.9075 59.4128 44.9075 52.4815 49.2776 48.2064C53.6477 43.9313 60.733 43.9313 65.1031 48.2064L88.7224 71.3123C93.0925 75.5874 93.0925 82.5187 88.7224 86.7938C84.3523 91.0689 77.267 91.0689 72.8969 86.7938L49.2776 63.6879Z" fill="#2B386D"/>
<path d="M233.278 63.6879C228.907 59.4128 228.907 52.4815 233.278 48.2064C237.648 43.9313 244.733 43.9313 249.103 48.2064L272.722 71.3123C277.093 75.5874 277.093 82.5187 272.722 86.7938C268.352 91.0689 261.267 91.0689 256.897 86.7938L233.278 63.6879Z" fill="#2B386D"/>
<path d="M187.278 63.6879C182.907 59.4128 182.907 52.4815 187.278 48.2064C191.648 43.9313 198.733 43.9313 203.103 48.2064L226.722 71.3123C231.093 75.5874 231.093 82.5187 226.722 86.7938C222.352 91.0689 215.267 91.0689 210.897 86.7938L187.278 63.6879Z" fill="#802836"/>
<path fill-rule="evenodd" clip-rule="evenodd" d="M141.278 63.6879C136.907 59.4128 136.907 52.4815 141.278 48.2064C145.648 43.9313 152.733 43.9313 157.103 48.2064L159.02 50.0818C157.754 50.1175 156.592 50.1349 155.532 50.1349C154.724 50.1349 153.971 50.1115 153.272 50.0675C152.573 50.0221 151.929 50.0001 151.341 50.0001C149.136 50.0001 147.346 50.506 145.969 51.5193C144.592 52.5311 143.904 53.9513 143.904 55.7784C143.904 58.5088 145.386 60.2658 148.349 61.0508C147.82 61.9045 147.343 62.717 146.919 63.4855C146.495 64.2554 146.089 64.9731 145.699 65.6385C145.38 66.1819 145.082 66.6825 144.808 67.1412L141.278 63.6879ZM159.288 50.7315L159.249 50.3059L174.042 64.7772C173.701 64.7548 173.345 64.7435 172.976 64.7435C172.343 64.7435 171.641 64.7628 170.872 64.8026C170.102 64.8425 169.305 64.8618 168.481 64.8618C167.255 64.8618 166 64.8425 164.712 64.8026L164.743 65.4433L166.598 66.0248C166.827 66.1032 166.947 66.2723 166.957 66.5308C166.967 66.858 166.974 67.225 166.979 67.632C166.983 68.0389 166.986 68.4967 166.986 69.0027V81.083C166.986 81.6797 166.983 82.2228 166.979 82.7136C166.974 83.2057 166.967 83.6498 166.957 84.0471C166.946 84.2753 166.812 84.4293 166.552 84.509L164.711 85.0603L164.77 85.701C166.037 85.6708 167.295 85.6556 168.482 85.6556C169.669 85.6556 170.986 85.6708 172.433 85.701L172.402 85.0603L170.337 84.4348C170.087 84.3551 169.957 84.2011 169.948 83.9729C169.938 83.5948 169.93 83.1686 169.926 82.6916C169.921 82.2145 169.919 81.6783 169.919 81.083L169.92 81.0844V76.839C170.716 76.9284 171.462 76.9738 172.158 76.9738C174.688 76.9738 176.654 76.3812 178.055 75.2003C179.34 74.1156 180.035 72.6305 180.142 70.744L180.722 71.3123C185.093 75.5874 185.093 82.5187 180.722 86.7938C176.352 91.0689 169.267 91.0689 164.897 86.7938L146.926 69.2136C147.024 69.074 147.121 68.9258 147.219 68.7689C147.684 68.0238 148.165 67.1906 148.664 66.2668C149.002 65.6701 149.33 65.0624 149.643 64.441C149.958 63.821 150.29 63.2092 150.639 62.6029C150.759 62.394 150.866 62.218 150.961 62.0736C151.055 61.9293 151.158 61.8124 151.268 61.7231C151.377 61.6337 151.504 61.5732 151.649 61.5375C151.794 61.5031 151.976 61.4852 152.196 61.4852H152.197H154.083V66.3561C154.083 66.9514 154.08 67.4876 154.075 67.9646C154.069 68.4417 154.062 68.8693 154.052 69.246C154.032 69.5539 153.902 69.7423 153.663 69.8124L151.957 70.3334L152.016 70.9741C153.124 70.9438 154.282 70.9287 155.518 70.9287C156.754 70.9287 158.013 70.9438 159.289 70.9741L159.259 70.3334L157.448 69.7821C157.188 69.7024 157.053 69.5429 157.043 69.3051C157.033 68.8885 157.025 68.4417 157.021 67.9646C157.015 67.4876 157.013 66.9514 157.013 66.3561V54.3514C157.013 53.8344 157.015 53.3725 157.021 52.9656C157.025 52.5586 157.033 52.1819 157.043 51.8341C157.062 51.566 157.183 51.3928 157.402 51.3131L159.288 50.7315ZM154.081 51.3419C153.355 51.2622 152.693 51.2223 152.095 51.2223C150.399 51.2223 149.156 51.5825 148.365 52.3029C147.575 53.0233 147.182 54.1561 147.182 55.7055C147.182 57.3347 147.619 58.5253 148.498 59.28C149.377 60.0348 150.712 60.4115 152.507 60.4115C153.114 60.4115 153.639 60.4074 154.081 60.3964V51.3433V51.3419ZM171.984 75.7653C171.306 75.7653 170.618 75.7062 169.919 75.5866H169.917V66.084C170.597 66.0042 171.27 65.9644 171.938 65.9644C173.644 65.9644 174.893 66.3617 175.687 67.1563C176.48 67.9509 176.877 69.0893 176.877 70.7762C176.877 72.463 176.461 73.7169 175.628 74.5362C174.795 75.3556 173.581 75.7653 171.984 75.7653Z" fill="white"/>
<path d="M3.27757 63.6878C-1.09253 59.4127 -1.09252 52.4814 3.27758 48.2063C7.64768 43.9312 14.733 43.9312 19.1031 48.2063L42.7224 71.3122C47.0925 75.5873 47.0925 82.5186 42.7224 86.7937C38.3523 91.0688 31.267 91.0688 26.8969 86.7937L3.27757 63.6878Z" fill="#2B386D"/>
<path d="M141.278 18.6878C136.907 14.4127 136.907 7.48142 141.278 3.20632C145.648 -1.06877 152.733 -1.06878 157.103 3.20632L180.722 26.3122C185.093 30.5873 185.093 37.5186 180.722 41.7937C176.352 46.0688 169.267 46.0688 164.897 41.7937L141.278 18.6878Z" fill="#2B386D"/>
<path d="M233.278 18.6878C228.907 14.4127 228.907 7.48142 233.278 3.20632C237.648 -1.06877 244.733 -1.06878 249.103 3.20632L272.722 26.3122C277.093 30.5873 277.093 37.5186 272.722 41.7937C268.352 46.0688 261.267 46.0688 256.897 41.7937L233.278 18.6878Z" fill="#802836"/>
<path d="M187.278 18.6878C182.907 14.4127 182.907 7.48142 187.278 3.20632C191.648 -1.06877 198.733 -1.06878 203.103 3.20632L226.722 26.3122C231.093 30.5873 231.093 37.5186 226.722 41.7937C222.352 46.0688 215.267 46.0688 210.897 41.7937L187.278 18.6878Z" fill="#802836"/>
<path d="M95.2776 18.6878C90.9075 14.4127 90.9075 7.48142 95.2776 3.20632C99.6477 -1.06877 106.733 -1.06878 111.103 3.20632L134.722 26.3122C139.093 30.5873 139.093 37.5186 134.722 41.7937C130.352 46.0688 123.267 46.0688 118.897 41.7937L95.2776 18.6878Z" fill="#802836"/>
<path d="M49.2776 18.6878C44.9075 14.4127 44.9075 7.48142 49.2776 3.20632C53.6477 -1.06877 60.733 -1.06878 65.1031 3.20632L88.7224 26.3122C93.0925 30.5873 93.0925 37.5186 88.7224 41.7937C84.3523 46.0688 77.267 46.0688 72.8969 41.7937L49.2776 18.6878Z" fill="#802836"/>
</svg>
