<svg width="18" height="19" viewBox="0 0 18 19" fill="none" xmlns="http://www.w3.org/2000/svg">
<g clip-path="url(#clip0_1009_13977)">
<path d="M5.25 5V2.75C5.25 2.55109 5.32902 2.36032 5.46967 2.21967C5.61032 2.07902 5.80109 2 6 2H12C12.1989 2 12.3897 2.07902 12.5303 2.21967C12.671 2.36032 12.75 2.55109 12.75 2.75V5H16.5V6.5H15V16.25C15 16.4489 14.921 16.6397 14.7803 16.7803C14.6397 16.921 14.4489 17 14.25 17H3.75C3.55109 17 3.36032 16.921 3.21967 16.7803C3.07902 16.6397 3 16.4489 3 16.25V6.5H1.5V5H5.25ZM6.75 3.5V5H11.25V3.5H6.75Z" fill="#5E5E5E"/>
</g>
<defs>
<clipPath id="clip0_1009_13977">
<rect width="18" height="18" fill="white" transform="translate(0 0.5)"/>
</clipPath>
</defs>
</svg>
