<svg width="18" height="19" viewBox="0 0 18 19" fill="none" xmlns="http://www.w3.org/2000/svg">
<g clip-path="url(#clip0_59_4014)">
<path d="M0.886719 9.5C1.59172 5.66 4.95697 2.75 9.00097 2.75C13.045 2.75 16.4095 5.66 17.1152 9.5C16.4102 13.34 13.045 16.25 9.00097 16.25C4.95697 16.25 1.59247 13.34 0.886719 9.5ZM9.00097 13.25C9.99553 13.25 10.9494 12.8549 11.6526 12.1517C12.3559 11.4484 12.751 10.4946 12.751 9.5C12.751 8.50544 12.3559 7.55161 11.6526 6.84835C10.9494 6.14509 9.99553 5.75 9.00097 5.75C8.00641 5.75 7.05258 6.14509 6.34932 6.84835C5.64606 7.55161 5.25097 8.50544 5.25097 9.5C5.25097 10.4946 5.64606 11.4484 6.34932 12.1517C7.05258 12.8549 8.00641 13.25 9.00097 13.25ZM9.00097 11.75C8.40423 11.75 7.83194 11.5129 7.40998 11.091C6.98802 10.669 6.75097 10.0967 6.75097 9.5C6.75097 8.90326 6.98802 8.33097 7.40998 7.90901C7.83194 7.48705 8.40423 7.25 9.00097 7.25C9.59771 7.25 10.17 7.48705 10.592 7.90901C11.0139 8.33097 11.251 8.90326 11.251 9.5C11.251 10.0967 11.0139 10.669 10.592 11.091C10.17 11.5129 9.59771 11.75 9.00097 11.75Z" fill="#5E5E5E"/>
</g>
<defs>
<clipPath id="clip0_59_4014">
<rect width="18" height="18" fill="white" transform="translate(0 0.5)"/>
</clipPath>
</defs>
</svg>
