<svg width="251" height="35" viewBox="0 0 251 35" fill="none" xmlns="http://www.w3.org/2000/svg">
<path d="M38.3266 14.535C34.9276 11.2099 34.9276 5.81888 38.3266 2.49381C41.7255 -0.831268 47.2364 -0.83127 50.6353 2.49381L69.0059 20.465C72.4049 23.7901 72.4049 29.1811 69.0059 32.5062C65.6069 35.8313 60.0961 35.8313 56.6971 32.5062L38.3266 14.535Z" fill="#2B386D"/>
<path d="M217.327 14.535C213.928 11.2099 213.928 5.81888 217.327 2.49381C220.726 -0.831268 226.236 -0.83127 229.635 2.49381L248.006 20.465C251.405 23.7901 251.405 29.1811 248.006 32.5062C244.607 35.8313 239.096 35.8313 235.697 32.5062L217.327 14.535Z" fill="#2B386D"/>
<path d="M109.883 14.535C106.484 11.2099 106.484 5.81891 109.883 2.49384C113.282 -0.831237 118.793 -0.831239 122.192 2.49384L140.563 20.4651C143.962 23.7901 143.961 29.1811 140.563 32.5062C137.164 35.8313 131.653 35.8313 128.254 32.5062L109.883 14.535Z" fill="#2B386D"/>
<path d="M74.1039 14.535C70.7049 11.2099 70.7049 5.81888 74.1039 2.49381C77.5029 -0.831268 83.0137 -0.83127 86.4127 2.49381L104.783 20.465C108.182 23.7901 108.182 29.1811 104.783 32.5062C101.384 35.8313 95.8735 35.8313 92.4745 32.5062L74.1039 14.535Z" fill="white"/>
<path fill-rule="evenodd" clip-rule="evenodd" d="M145.661 14.535C142.262 11.2099 142.262 5.81888 145.661 2.49381C149.06 -0.831268 154.57 -0.83127 157.969 2.49381L159.46 3.9524C158.476 3.98022 157.572 3.99368 156.748 3.99368C156.119 3.99368 155.534 3.9755 154.99 3.94128C154.446 3.90599 153.946 3.88889 153.488 3.88889C151.773 3.88889 150.381 4.28238 149.31 5.07045C148.238 5.85745 147.703 6.96202 147.703 8.38311C147.703 10.5067 148.856 11.8733 151.161 12.4838C150.749 13.1479 150.379 13.7798 150.049 14.3775C149.719 14.9764 149.403 15.5345 149.1 16.0521C148.852 16.4748 148.62 16.8643 148.406 17.2211L145.661 14.535ZM159.669 4.45775L159.639 4.12714L171.144 15.382C170.879 15.3646 170.603 15.356 170.316 15.356C169.824 15.356 169.279 15.3709 168.68 15.4019C168.082 15.4329 167.462 15.4479 166.82 15.4479C165.867 15.4479 164.891 15.4329 163.89 15.4019L163.913 15.9002L165.356 16.3525C165.534 16.4135 165.628 16.545 165.635 16.746C165.643 17.0005 165.648 17.286 165.653 17.6025C165.656 17.919 165.658 18.2751 165.658 18.6686V28.0645C165.658 28.5285 165.656 28.9509 165.653 29.3326C165.648 29.7155 165.643 30.0608 165.635 30.3699C165.627 30.5474 165.523 30.6671 165.321 30.7291L163.888 31.1579L163.935 31.6562C164.92 31.6327 165.899 31.6209 166.822 31.6209C167.744 31.6209 168.769 31.6327 169.894 31.6562L169.871 31.1579L168.264 30.6714C168.07 30.6094 167.969 30.4896 167.961 30.3121C167.954 30.0181 167.947 29.6866 167.944 29.3155C167.941 28.9445 167.939 28.5275 167.939 28.0645L167.94 28.0655V24.7636C168.559 24.8331 169.139 24.8684 169.68 24.8684C171.649 24.8684 173.178 24.4075 174.267 23.489C175.266 22.6457 175.807 21.4912 175.89 20.0248L176.34 20.465C179.739 23.7901 179.739 29.1811 176.34 32.5062C172.941 35.8313 167.43 35.8313 164.031 32.5062L150.054 18.833C150.13 18.7243 150.206 18.6089 150.282 18.4868C150.644 17.9073 151.018 17.2593 151.406 16.5407C151.669 16.0767 151.924 15.604 152.168 15.1207C152.412 14.6385 152.67 14.1626 152.942 13.6911C153.036 13.5285 153.118 13.3917 153.192 13.2794C153.266 13.1671 153.346 13.0762 153.431 13.0067C153.516 12.9372 153.615 12.8902 153.728 12.8624C153.84 12.8356 153.982 12.8217 154.153 12.8217H154.154H155.621V16.6102C155.621 17.0732 155.618 17.4903 155.614 17.8613C155.61 18.2323 155.604 18.5649 155.597 18.8579C155.581 19.0974 155.48 19.2439 155.294 19.2984L153.967 19.7037L154.013 20.202C154.875 20.1784 155.775 20.1667 156.737 20.1667C157.698 20.1667 158.677 20.1784 159.67 20.202L159.646 19.7037L158.238 19.2749C158.036 19.2129 157.931 19.0888 157.923 18.9039C157.915 18.5799 157.909 18.2323 157.906 17.8613C157.902 17.4903 157.899 17.0732 157.899 16.6102V7.27319C157.899 6.87113 157.902 6.51185 157.906 6.19534C157.909 5.87883 157.915 5.58585 157.923 5.31532C157.938 5.10681 158.032 4.97208 158.202 4.91006L159.669 4.45775ZM155.62 4.93251C155.054 4.87049 154.54 4.83948 154.075 4.83948C152.755 4.83948 151.788 5.11964 151.174 5.67995C150.559 6.24025 150.253 7.12135 150.253 8.32644C150.253 9.59355 150.594 10.5196 151.277 11.1066C151.96 11.6936 152.999 11.9866 154.395 11.9866C154.867 11.9866 155.276 11.9834 155.62 11.9749V4.93358V4.93251ZM169.545 23.9285C169.018 23.9285 168.483 23.8825 167.939 23.7894H167.938V16.3985C168.466 16.3365 168.99 16.3055 169.51 16.3055C170.836 16.3055 171.808 16.6145 172.426 17.2326C173.042 17.8506 173.351 18.736 173.351 20.048C173.351 21.36 173.027 22.3352 172.379 22.9725C171.731 23.6098 170.787 23.9285 169.545 23.9285Z" fill="white"/>
<path d="M2.54922 14.535C-0.849744 11.2099 -0.849738 5.81888 2.54923 2.49381C5.94819 -0.831268 11.459 -0.83127 14.858 2.49381L33.2286 20.465C36.6275 23.7901 36.6275 29.1811 33.2285 32.5062C29.8296 35.8313 24.3188 35.8313 20.9198 32.5062L2.54922 14.535Z" fill="#802836"/>
<path d="M181.549 14.535C178.15 11.2099 178.15 5.81888 181.549 2.49381C184.948 -0.831268 190.459 -0.83127 193.858 2.49381L212.229 20.465C215.628 23.7901 215.628 29.1811 212.229 32.5062C208.83 35.8313 203.319 35.8313 199.92 32.5062L181.549 14.535Z" fill="#802836"/>
</svg>
