<svg width="179" height="35" viewBox="0 0 179 35" fill="none" xmlns="http://www.w3.org/2000/svg">
<path d="M2.54922 14.535C-0.849744 11.2099 -0.849738 5.81888 2.54923 2.49381C5.94819 -0.831268 11.459 -0.83127 14.858 2.49381L33.2286 20.465C36.6275 23.7901 36.6275 29.1811 33.2285 32.5062C29.8296 35.8313 24.3188 35.8313 20.9198 32.5062L2.54922 14.535Z" fill="#2B386D"/>
<path d="M109.883 14.535C106.484 11.2099 106.484 5.81888 109.883 2.49381C113.282 -0.831268 118.793 -0.83127 122.192 2.49381L140.563 20.465C143.962 23.7901 143.961 29.1811 140.563 32.5062C137.164 35.8313 131.653 35.8313 128.254 32.5062L109.883 14.535Z" fill="#2B386D"/>
<path d="M74.1039 14.535C70.7049 11.2099 70.7049 5.81888 74.1039 2.49381C77.5029 -0.831268 83.0137 -0.83127 86.4127 2.49381L104.783 20.465C108.182 23.7901 108.182 29.1811 104.783 32.5062C101.384 35.8313 95.8735 35.8313 92.4745 32.5062L74.1039 14.535Z" fill="#802836"/>
<path fill-rule="evenodd" clip-rule="evenodd" d="M38.3266 14.535C34.9276 11.2099 34.9276 5.81888 38.3266 2.49381C41.7255 -0.831268 47.2364 -0.83127 50.6353 2.49381L52.1263 3.9524C51.142 3.98022 50.2379 3.99368 49.4139 3.99368C48.7854 3.99368 48.1998 3.9755 47.6562 3.94128C47.1125 3.90599 46.6119 3.88889 46.1542 3.88889C44.4395 3.88889 43.0471 4.28238 41.9759 5.07045C40.9047 5.85745 40.3697 6.96202 40.3697 8.38311C40.3697 10.5067 41.5225 11.8733 43.8271 12.4838C43.4156 13.1479 43.0449 13.7798 42.7151 14.3775C42.3852 14.9764 42.0694 15.5345 41.7664 16.0521C41.5178 16.4749 41.2864 16.8644 41.0725 17.2213L38.3266 14.535ZM52.3351 4.45775L52.3052 4.12739L63.8099 15.382C63.545 15.3646 63.2692 15.356 62.9825 15.356C62.4904 15.356 61.9447 15.3709 61.3462 15.4019C60.7478 15.4329 60.1279 15.4479 59.4865 15.4479C58.5335 15.4479 57.5569 15.4329 56.5555 15.4019L56.5792 15.9002L58.0221 16.3525C58.2004 16.4135 58.2939 16.545 58.3014 16.746C58.3089 17.0005 58.3143 17.286 58.3186 17.6025C58.3218 17.919 58.324 18.2751 58.324 18.6686V28.0645C58.324 28.5285 58.3218 28.9509 58.3186 29.3326C58.3143 29.7154 58.3089 30.0608 58.3014 30.3699C58.2928 30.5474 58.1886 30.6671 57.9866 30.7291L56.5545 31.1579L56.6007 31.6562C57.5859 31.6327 58.5646 31.6209 59.4875 31.6209C60.4104 31.6209 61.4354 31.6327 62.5603 31.6562L62.5366 31.1579L60.9304 30.6714C60.736 30.6094 60.635 30.4896 60.6275 30.3121C60.6199 30.0181 60.6135 29.6866 60.6103 29.3155C60.607 28.9445 60.6049 28.5275 60.6049 28.0645L60.606 28.0655V24.7636C61.2248 24.8331 61.805 24.8684 62.3465 24.8684C64.3148 24.8684 65.8436 24.4075 66.933 23.489C67.9321 22.6457 68.473 21.4912 68.5559 20.0248L69.0059 20.465C72.4049 23.7901 72.4049 29.1811 69.0059 32.5062C65.6069 35.8313 60.0961 35.8313 56.6971 32.5062L42.7202 18.8331C42.7961 18.7244 42.8721 18.609 42.9482 18.4868C43.3103 17.9073 43.6842 17.2593 44.072 16.5407C44.3352 16.0767 44.5899 15.604 44.8338 15.1207C45.0787 14.6385 45.3366 14.1626 45.6084 13.6911C45.7019 13.5285 45.7846 13.3917 45.8587 13.2794C45.9318 13.1671 46.0124 13.0762 46.0972 13.0067C46.1821 12.9372 46.281 12.8902 46.3938 12.8624C46.5066 12.8356 46.6484 12.8217 46.8192 12.8217H46.8203H48.2868V16.6102C48.2868 17.0732 48.2847 17.4903 48.2804 17.8613C48.2761 18.2323 48.2707 18.5649 48.2632 18.8579C48.2471 19.0974 48.1461 19.2439 47.9602 19.2984L46.6334 19.7037L46.6796 20.202C47.5412 20.1784 48.4415 20.1667 49.4031 20.1667C50.3647 20.1667 51.3435 20.1784 52.3362 20.202L52.3126 19.7037L50.904 19.2749C50.7021 19.2129 50.5968 19.0888 50.5892 18.9039C50.5817 18.5799 50.5753 18.2323 50.5721 17.8613C50.5678 17.4903 50.5656 17.0732 50.5656 16.6102V7.27319C50.5656 6.87113 50.5678 6.51185 50.5721 6.19534C50.5753 5.87883 50.5817 5.58585 50.5892 5.31532C50.6043 5.10681 50.6978 4.97208 50.8686 4.91006L52.3351 4.45775ZM48.2858 4.93251C47.7206 4.87049 47.206 4.83948 46.7408 4.83948C45.4214 4.83948 44.4545 5.11964 43.84 5.67995C43.2254 6.24025 42.9192 7.12135 42.9192 8.32644C42.9192 9.59355 43.2598 10.5196 43.9431 11.1066C44.6264 11.6936 45.6653 11.9866 47.061 11.9866C47.5337 11.9866 47.942 11.9834 48.2858 11.9749V4.93358V4.93251ZM62.2111 23.9284C61.6836 23.9284 61.1485 23.8825 60.6049 23.7894H60.6038V16.3985C61.1324 16.3365 61.6556 16.3055 62.1756 16.3055C63.5025 16.3055 64.4738 16.6145 65.0915 17.2326C65.7082 17.8506 66.0166 18.736 66.0166 20.048C66.0166 21.36 65.6932 22.3352 65.0453 22.9725C64.3975 23.6098 63.4531 23.9284 62.2111 23.9284Z" fill="white"/>
<path d="M145.661 14.535C142.262 11.2099 142.262 5.81888 145.661 2.49381C149.06 -0.831268 154.57 -0.83127 157.969 2.49381L176.34 20.465C179.739 23.7901 179.739 29.1811 176.34 32.5062C172.941 35.8313 167.43 35.8313 164.031 32.5062L145.661 14.535Z" fill="#802836"/>
</svg>
