<svg width="18" height="18" viewBox="0 0 18 18" fill="none" xmlns="http://www.w3.org/2000/svg">
<g clip-path="url(#clip0_20_6738)">
<path d="M13.5233 12.4628L16.7355 15.6742L15.6742 16.7355L12.4628 13.5233C11.2678 14.4812 9.7815 15.0022 8.25 15C4.524 15 1.5 11.976 1.5 8.25C1.5 4.524 4.524 1.5 8.25 1.5C11.976 1.5 15 4.524 15 8.25C15.0022 9.7815 14.4812 11.2678 13.5233 12.4628ZM9.1335 5.38275C8.49328 5.18565 7.80552 5.2085 7.17979 5.44764C6.55406 5.68679 6.02637 6.12848 5.6808 6.70233C5.33524 7.27619 5.19167 7.94919 5.27298 8.61411C5.3543 9.27903 5.65581 9.8976 6.12948 10.3713C6.60315 10.8449 7.22172 11.1465 7.88664 11.2278C8.55156 11.3091 9.22456 11.1655 9.79842 10.8199C10.3723 10.4744 10.814 9.94669 11.0531 9.32096C11.2923 8.69523 11.3151 8.00747 11.118 7.36725C11.018 7.58828 10.8658 7.78174 10.6746 7.93106C10.4834 8.08037 10.2588 8.18108 10.0201 8.22454C9.78146 8.26801 9.5358 8.25293 9.30423 8.1806C9.07265 8.10827 8.86208 7.98085 8.69056 7.80927C8.51905 7.63769 8.39171 7.42707 8.31947 7.19547C8.24723 6.96386 8.23224 6.7182 8.27579 6.47953C8.31934 6.24087 8.42014 6.01633 8.56952 5.82517C8.71891 5.63401 8.91244 5.48194 9.1335 5.382V5.38275Z" fill="#5E5E5E"/>
</g>
<defs>
<clipPath id="clip0_20_6738">
<rect width="18" height="18" fill="white"/>
</clipPath>
</defs>
</svg>
