<svg width="92" height="45" viewBox="0 0 92 45" fill="none" xmlns="http://www.w3.org/2000/svg">
<path d="M49.2776 18.6878C44.9075 14.4127 44.9075 7.48142 49.2776 3.20632C53.6477 -1.06877 60.733 -1.06878 65.1031 3.20632L88.7224 26.3122C93.0925 30.5873 93.0925 37.5186 88.7224 41.7937C84.3523 46.0688 77.267 46.0688 72.8969 41.7937L49.2776 18.6878Z" fill="#802836"/>
<path d="M3.27757 18.6878C-1.09253 14.4127 -1.09252 7.48142 3.27758 3.20632C7.64768 -1.06877 14.733 -1.06878 19.1031 3.20632L42.7224 26.3122C47.0925 30.5873 47.0925 37.5186 42.7224 41.7937C38.3523 46.0688 31.267 46.0688 26.8969 41.7937L3.27757 18.6878Z" fill="#802836"/>
</svg>
