<svg width="24" height="24" viewBox="0 0 24 24" fill="none" xmlns="http://www.w3.org/2000/svg">
<rect width="24" height="24" rx="12" transform="matrix(-1 0 0 1 24 0)" fill="white"/>
<path d="M17.1803 7.04086L6.31246 11.2357C6.306 11.2382 6.29973 11.2411 6.29371 11.2446C6.20558 11.2944 5.59056 11.6696 6.45778 12.006L6.46669 12.0093L9.05451 12.8432C9.07425 12.8496 9.09516 12.8516 9.11577 12.8491C9.13637 12.8466 9.15618 12.8396 9.17381 12.8287L15.5924 8.83423C15.6081 8.82444 15.6257 8.81784 15.644 8.81483C15.7333 8.8001 15.9904 8.77251 15.8277 8.97848C15.6437 9.21227 11.2596 13.131 10.773 13.5656C10.7449 13.5907 10.7276 13.6256 10.7245 13.6631L10.5121 16.188C10.5121 16.2137 10.5181 16.239 10.5296 16.2621C10.5411 16.2851 10.5578 16.3051 10.5785 16.3205C10.6077 16.3389 10.6421 16.3474 10.6766 16.3448C10.7111 16.3422 10.7438 16.3286 10.77 16.306L12.3075 14.9353C12.3318 14.9137 12.3628 14.901 12.3953 14.8993C12.4278 14.8977 12.46 14.9072 12.4863 14.9262L15.1689 16.869L15.1775 16.8748C15.2425 16.9148 15.9437 17.3218 16.1462 16.4129L17.9979 7.63071C18.0004 7.60288 18.0255 7.29709 17.8064 7.11638C17.5762 6.92748 17.2504 7.02286 17.2014 7.03315C17.1942 7.03516 17.1872 7.03774 17.1803 7.04086Z" fill="#0E1132"/>
</svg>
