<svg width="690" height="45" viewBox="0 0 690 45" fill="none" xmlns="http://www.w3.org/2000/svg">
<path d="M371.278 18.6879C366.907 14.4128 366.907 7.48154 371.278 3.20645C375.648 -1.06865 382.733 -1.06865 387.103 3.20644L410.722 26.3123C415.093 30.5874 415.093 37.5187 410.722 41.7938C406.352 46.0689 399.267 46.0689 394.897 41.7938L371.278 18.6879Z" fill="#2B386D"/>
<path d="M49.2776 18.6879C44.9075 14.4128 44.9075 7.48154 49.2776 3.20645C53.6477 -1.06865 60.733 -1.06865 65.1031 3.20644L88.7224 26.3123C93.0925 30.5874 93.0925 37.5187 88.7224 41.7938C84.3523 46.0689 77.267 46.0689 72.8969 41.7938L49.2776 18.6879Z" fill="white"/>
<path d="M509.278 18.6879C504.907 14.4128 504.907 7.48154 509.278 3.20645C513.648 -1.06865 520.733 -1.06865 525.103 3.20644L548.722 26.3123C553.093 30.5874 553.093 37.5187 548.722 41.7938C544.352 46.0689 537.267 46.0689 532.897 41.7938L509.278 18.6879Z" fill="white"/>
<path d="M3.27757 18.6879C-1.09253 14.4128 -1.09252 7.48154 3.27758 3.20645C7.64768 -1.06865 14.733 -1.06865 19.1031 3.20644L42.7224 26.3123C47.0925 30.5874 47.0925 37.5187 42.7224 41.7938C38.3523 46.0689 31.267 46.0689 26.8969 41.7938L3.27757 18.6879Z" fill="#2B386D"/>
<path d="M279.278 18.6879C274.907 14.4128 274.907 7.48154 279.278 3.20645C283.648 -1.06865 290.733 -1.06865 295.103 3.20644L318.722 26.3123C323.093 30.5874 323.093 37.5187 318.722 41.7938C314.352 46.0689 307.267 46.0689 302.897 41.7938L279.278 18.6879Z" fill="white"/>
<path d="M463.278 18.6879C458.907 14.4128 458.907 7.48154 463.278 3.20645C467.648 -1.06865 474.733 -1.06865 479.103 3.20644L502.722 26.3123C507.093 30.5874 507.093 37.5187 502.722 41.7938C498.352 46.0689 491.267 46.0689 486.897 41.7938L463.278 18.6879Z" fill="#2B386D"/>
<path d="M187.278 18.6879C182.907 14.4128 182.907 7.48154 187.278 3.20645C191.648 -1.06865 198.733 -1.06865 203.103 3.20644L226.722 26.3123C231.093 30.5874 231.093 37.5187 226.722 41.7938C222.352 46.0689 215.267 46.0689 210.897 41.7938L187.278 18.6879Z" fill="#2B386D"/>
<path d="M647.278 18.6879C642.907 14.4128 642.907 7.48154 647.278 3.20645C651.648 -1.06865 658.733 -1.06865 663.103 3.20644L686.722 26.3123C691.093 30.5874 691.093 37.5187 686.722 41.7938C682.352 46.0689 675.267 46.0689 670.897 41.7938L647.278 18.6879Z" fill="#2B386D"/>
<path d="M417.278 18.6879C412.907 14.4128 412.907 7.48154 417.278 3.20645C421.648 -1.06865 428.733 -1.06865 433.103 3.20644L456.722 26.3123C461.093 30.5874 461.093 37.5187 456.722 41.7938C452.352 46.0689 445.267 46.0689 440.897 41.7938L417.278 18.6879Z" fill="#2B386D"/>
<path d="M141.278 18.6879C136.907 14.4128 136.907 7.48154 141.278 3.20645C145.648 -1.06865 152.733 -1.06865 157.103 3.20644L180.722 26.3123C185.093 30.5874 185.093 37.5187 180.722 41.7938C176.352 46.0689 169.267 46.0689 164.897 41.7938L141.278 18.6879Z" fill="#802836"/>
<path d="M601.278 18.6879C596.907 14.4128 596.907 7.48154 601.278 3.20645C605.648 -1.06865 612.733 -1.06865 617.103 3.20644L640.722 26.3123C645.093 30.5874 645.093 37.5187 640.722 41.7938C636.352 46.0689 629.267 46.0689 624.897 41.7938L601.278 18.6879Z" fill="#802836"/>
<path fill-rule="evenodd" clip-rule="evenodd" d="M95.2776 18.6879C90.9075 14.4128 90.9075 7.48154 95.2776 3.20645C99.6477 -1.06865 106.733 -1.06865 111.103 3.20644L113.02 5.08176C111.754 5.11755 110.592 5.13485 109.532 5.13485C108.724 5.13485 107.971 5.11148 107.272 5.06749C106.573 5.02212 105.929 5.00012 105.341 5.00012C103.136 5.00012 101.346 5.50605 99.9687 6.51928C98.5915 7.53113 97.9036 8.9513 97.9036 10.7784C97.9036 13.5088 99.3858 15.2658 102.349 16.0508C101.82 16.9045 101.343 17.717 100.919 18.4855C100.495 19.2554 100.089 19.9731 99.6994 20.6385C99.3799 21.1819 99.0825 21.6825 98.8076 22.1412L95.2776 18.6879ZM113.288 5.73152L113.249 5.30587L128.042 19.777C127.701 19.7547 127.346 19.7435 126.978 19.7435C126.345 19.7435 125.643 19.7627 124.874 19.8026C124.104 19.8425 123.307 19.8617 122.483 19.8617C121.257 19.8617 120.002 19.8425 118.714 19.8026L118.745 20.4433L120.6 21.0248C120.829 21.1032 120.949 21.2723 120.959 21.5307C120.969 21.8579 120.976 22.225 120.981 22.632C120.985 23.0389 120.988 23.4967 120.988 24.0026V36.083C120.988 36.6797 120.985 37.2227 120.981 37.7135C120.976 38.2057 120.969 38.6498 120.959 39.0471C120.948 39.2753 120.814 39.4293 120.554 39.509L118.713 40.0603L118.772 40.701C120.039 40.6707 121.297 40.6556 122.484 40.6556C123.671 40.6556 124.988 40.6707 126.435 40.701L126.404 40.0603L124.339 39.4348C124.089 39.355 123.959 39.2011 123.95 38.9728C123.94 38.5948 123.932 38.1686 123.927 37.6915C123.923 37.2145 123.921 36.6783 123.921 36.083L123.922 36.0844V31.839C124.718 31.9284 125.464 31.9737 126.16 31.9737C128.69 31.9737 130.656 31.3812 132.057 30.2002C133.341 29.1159 134.037 27.6314 134.143 25.7458L134.722 26.3123C139.093 30.5874 139.093 37.5187 134.722 41.7938C130.352 46.0689 123.267 46.0689 118.897 41.7938L100.926 24.2136C101.024 24.074 101.121 23.9258 101.219 23.7689C101.684 23.0238 102.165 22.1906 102.664 21.2668C103.002 20.6701 103.33 20.0624 103.643 19.441C103.958 18.821 104.29 18.2092 104.639 17.6029C104.759 17.394 104.866 17.218 104.961 17.0736C105.055 16.9293 105.158 16.8124 105.268 16.7231C105.377 16.6337 105.504 16.5732 105.649 16.5375C105.794 16.5031 105.976 16.4852 106.196 16.4852H106.197H108.083V21.3561C108.083 21.9514 108.08 22.4876 108.075 22.9646C108.069 23.4417 108.062 23.8693 108.052 24.246C108.032 24.5539 107.902 24.7423 107.663 24.8124L105.957 25.3334L106.016 25.9741C107.124 25.9438 108.282 25.9287 109.518 25.9287C110.754 25.9287 112.013 25.9438 113.289 25.9741L113.259 25.3334L111.448 24.7821C111.188 24.7024 111.053 24.5429 111.043 24.3051C111.033 23.8885 111.025 23.4417 111.021 22.9646C111.015 22.4876 111.013 21.9514 111.013 21.3561V9.35137C111.013 8.83444 111.015 8.37251 111.021 7.96557C111.025 7.55863 111.033 7.18193 111.043 6.83411C111.062 6.56602 111.183 6.3928 111.402 6.31306L113.288 5.73152ZM108.081 6.34193C107.355 6.26219 106.693 6.22232 106.095 6.22232C104.399 6.22232 103.156 6.58252 102.365 7.30291C101.575 8.02331 101.182 9.15615 101.182 10.7055C101.182 12.3347 101.619 13.5253 102.498 14.28C103.377 15.0348 104.712 15.4115 106.507 15.4115C107.114 15.4115 107.639 15.4074 108.081 15.3964V6.3433V6.34193ZM125.986 30.7653C125.307 30.7653 124.62 30.7062 123.921 30.5866H123.919V21.0839C124.599 21.0042 125.272 20.9643 125.94 20.9643C127.646 20.9643 128.895 21.3616 129.689 22.1563C130.482 22.9509 130.878 24.0892 130.878 25.7761C130.878 27.463 130.463 28.7168 129.63 29.5362C128.797 30.3556 127.583 30.7653 125.986 30.7653Z" fill="white"/>
<path d="M233.278 18.6879C228.907 14.4128 228.907 7.48154 233.278 3.20645C237.648 -1.06865 244.733 -1.06865 249.103 3.20644L272.722 26.3123C277.093 30.5874 277.093 37.5187 272.722 41.7938C268.352 46.0689 261.267 46.0689 256.897 41.7938L233.278 18.6879Z" fill="#802836"/>
<path fill-rule="evenodd" clip-rule="evenodd" d="M555.278 18.6879C550.907 14.4128 550.907 7.48154 555.278 3.20645C559.648 -1.06865 566.733 -1.06865 571.103 3.20644L573.02 5.08176C571.754 5.11755 570.592 5.13485 569.532 5.13485C568.724 5.13485 567.971 5.11148 567.272 5.06749C566.573 5.02212 565.929 5.00012 565.341 5.00012C563.136 5.00012 561.346 5.50605 559.969 6.51928C558.592 7.53113 557.904 8.9513 557.904 10.7784C557.904 13.5088 559.386 15.2658 562.349 16.0508C561.82 16.9045 561.343 17.717 560.919 18.4855C560.495 19.2554 560.089 19.9731 559.699 20.6385C559.38 21.1819 559.082 21.6825 558.808 22.1412L555.278 18.6879ZM573.288 5.73152L573.249 5.30587L588.042 19.777C587.701 19.7547 587.346 19.7435 586.978 19.7435C586.345 19.7435 585.643 19.7627 584.874 19.8026C584.104 19.8425 583.307 19.8617 582.483 19.8617C581.257 19.8617 580.002 19.8425 578.714 19.8026L578.745 20.4433L580.6 21.0248C580.829 21.1032 580.949 21.2723 580.959 21.5307C580.969 21.8579 580.976 22.225 580.981 22.632C580.985 23.0389 580.988 23.4967 580.988 24.0026V36.083C580.988 36.6797 580.985 37.2227 580.981 37.7135C580.976 38.2057 580.969 38.6498 580.959 39.0471C580.948 39.2753 580.814 39.4293 580.554 39.509L578.713 40.0603L578.772 40.701C580.039 40.6707 581.297 40.6556 582.484 40.6556C583.671 40.6556 584.988 40.6707 586.435 40.701L586.404 40.0603L584.339 39.4348C584.089 39.355 583.959 39.2011 583.95 38.9728C583.94 38.5948 583.932 38.1686 583.927 37.6915C583.923 37.2145 583.921 36.6783 583.921 36.083L583.922 36.0844V31.839C584.718 31.9284 585.464 31.9737 586.16 31.9737C588.69 31.9737 590.656 31.3812 592.057 30.2002C593.341 29.1159 594.037 27.6314 594.143 25.7458L594.722 26.3123C599.093 30.5874 599.093 37.5187 594.722 41.7938C590.352 46.0689 583.267 46.0689 578.897 41.7938L560.926 24.2136C561.024 24.074 561.121 23.9258 561.219 23.7689C561.684 23.0238 562.165 22.1906 562.664 21.2668C563.002 20.6701 563.33 20.0624 563.643 19.441C563.958 18.821 564.29 18.2092 564.639 17.6029C564.759 17.394 564.866 17.218 564.961 17.0736C565.055 16.9293 565.158 16.8124 565.268 16.7231C565.377 16.6337 565.504 16.5732 565.649 16.5375C565.794 16.5031 565.976 16.4852 566.196 16.4852H566.197H568.083V21.3561C568.083 21.9514 568.08 22.4876 568.075 22.9646C568.069 23.4417 568.062 23.8693 568.052 24.246C568.032 24.5539 567.902 24.7423 567.663 24.8124L565.957 25.3334L566.016 25.9741C567.124 25.9438 568.282 25.9287 569.518 25.9287C570.754 25.9287 572.013 25.9438 573.289 25.9741L573.259 25.3334L571.448 24.7821C571.188 24.7024 571.053 24.5429 571.043 24.3051C571.033 23.8885 571.025 23.4417 571.021 22.9646C571.015 22.4876 571.013 21.9514 571.013 21.3561V9.35137C571.013 8.83444 571.015 8.37251 571.021 7.96557C571.025 7.55863 571.033 7.18193 571.043 6.83411C571.062 6.56602 571.183 6.3928 571.402 6.31306L573.288 5.73152ZM568.081 6.34193C567.355 6.26219 566.693 6.22232 566.095 6.22232C564.399 6.22232 563.156 6.58252 562.365 7.30291C561.575 8.02331 561.182 9.15615 561.182 10.7055C561.182 12.3347 561.619 13.5253 562.498 14.28C563.377 15.0348 564.712 15.4115 566.507 15.4115C567.114 15.4115 567.639 15.4074 568.081 15.3964V6.3433V6.34193ZM585.986 30.7653C585.307 30.7653 584.62 30.7062 583.921 30.5866H583.919V21.0839C584.599 21.0042 585.272 20.9643 585.94 20.9643C587.646 20.9643 588.895 21.3616 589.689 22.1563C590.482 22.9509 590.878 24.0892 590.878 25.7761C590.878 27.463 590.463 28.7168 589.63 29.5362C588.797 30.3556 587.583 30.7653 585.986 30.7653Z" fill="white"/>
<path fill-rule="evenodd" clip-rule="evenodd" d="M325.278 18.6879C320.907 14.4128 320.907 7.48154 325.278 3.20645C329.648 -1.06865 336.733 -1.06865 341.103 3.20644L343.02 5.08176C341.754 5.11755 340.592 5.13485 339.532 5.13485C338.724 5.13485 337.971 5.11148 337.272 5.06749C336.573 5.02212 335.929 5.00012 335.341 5.00012C333.136 5.00012 331.346 5.50605 329.969 6.51928C328.592 7.53113 327.904 8.9513 327.904 10.7784C327.904 13.5088 329.386 15.2658 332.349 16.0508C331.82 16.9045 331.343 17.717 330.919 18.4855C330.495 19.2554 330.089 19.9731 329.699 20.6385C329.38 21.1819 329.082 21.6825 328.808 22.1412L325.278 18.6879ZM343.288 5.73152L343.249 5.30587L358.042 19.777C357.701 19.7547 357.346 19.7435 356.978 19.7435C356.345 19.7435 355.643 19.7627 354.874 19.8026C354.104 19.8425 353.307 19.8617 352.483 19.8617C351.257 19.8617 350.002 19.8425 348.714 19.8026L348.745 20.4433L350.6 21.0248C350.829 21.1032 350.949 21.2723 350.959 21.5307C350.969 21.8579 350.976 22.225 350.981 22.632C350.985 23.0389 350.988 23.4967 350.988 24.0026V36.083C350.988 36.6797 350.985 37.2227 350.981 37.7135C350.976 38.2057 350.969 38.6498 350.959 39.0471C350.948 39.2753 350.814 39.4293 350.554 39.509L348.713 40.0603L348.772 40.701C350.039 40.6707 351.297 40.6556 352.484 40.6556C353.671 40.6556 354.988 40.6707 356.435 40.701L356.404 40.0603L354.339 39.4348C354.089 39.355 353.959 39.2011 353.95 38.9728C353.94 38.5948 353.932 38.1686 353.927 37.6915C353.923 37.2145 353.921 36.6783 353.921 36.083L353.922 36.0844V31.839C354.718 31.9284 355.464 31.9737 356.16 31.9737C358.69 31.9737 360.656 31.3812 362.057 30.2002C363.341 29.1159 364.037 27.6314 364.143 25.7458L364.722 26.3123C369.093 30.5874 369.093 37.5187 364.722 41.7938C360.352 46.0689 353.267 46.0689 348.897 41.7938L330.926 24.2136C331.024 24.074 331.121 23.9258 331.219 23.7689C331.684 23.0238 332.165 22.1906 332.664 21.2668C333.002 20.6701 333.33 20.0624 333.643 19.441C333.958 18.821 334.29 18.2092 334.639 17.6029C334.759 17.394 334.866 17.218 334.961 17.0736C335.055 16.9293 335.158 16.8124 335.268 16.7231C335.377 16.6337 335.504 16.5732 335.649 16.5375C335.794 16.5031 335.976 16.4852 336.196 16.4852H336.197H338.083V21.3561C338.083 21.9514 338.08 22.4876 338.075 22.9646C338.069 23.4417 338.062 23.8693 338.052 24.246C338.032 24.5539 337.902 24.7423 337.663 24.8124L335.957 25.3334L336.016 25.9741C337.124 25.9438 338.282 25.9287 339.518 25.9287C340.754 25.9287 342.013 25.9438 343.289 25.9741L343.259 25.3334L341.448 24.7821C341.188 24.7024 341.053 24.5429 341.043 24.3051C341.033 23.8885 341.025 23.4417 341.021 22.9646C341.015 22.4876 341.013 21.9514 341.013 21.3561V9.35137C341.013 8.83444 341.015 8.37251 341.021 7.96557C341.025 7.55863 341.033 7.18193 341.043 6.83411C341.062 6.56602 341.183 6.3928 341.402 6.31306L343.288 5.73152ZM338.081 6.34193C337.355 6.26219 336.693 6.22232 336.095 6.22232C334.399 6.22232 333.156 6.58252 332.365 7.30291C331.575 8.02331 331.182 9.15615 331.182 10.7055C331.182 12.3347 331.619 13.5253 332.498 14.28C333.377 15.0348 334.712 15.4115 336.507 15.4115C337.114 15.4115 337.639 15.4074 338.081 15.3964V6.3433V6.34193ZM355.986 30.7653C355.307 30.7653 354.62 30.7062 353.921 30.5866H353.919V21.0839C354.599 21.0042 355.272 20.9643 355.94 20.9643C357.646 20.9643 358.895 21.3616 359.689 22.1563C360.482 22.9509 360.878 24.0892 360.878 25.7761C360.878 27.463 360.463 28.7168 359.63 29.5362C358.797 30.3556 357.583 30.7653 355.986 30.7653Z" fill="white"/>
</svg>
