<svg width="690" height="45" viewBox="0 0 690 45" fill="none" xmlns="http://www.w3.org/2000/svg">
<path d="M3.27757 18.6878C-1.09253 14.4127 -1.09252 7.48142 3.27758 3.20632C7.64768 -1.06877 14.733 -1.06878 19.1031 3.20632L42.7224 26.3122C47.0925 30.5873 47.0925 37.5186 42.7224 41.7937C38.3523 46.0688 31.267 46.0688 26.8969 41.7937L3.27757 18.6878Z" fill="#2B386D"/>
<path d="M463.278 18.6878C458.907 14.4127 458.907 7.48142 463.278 3.20632C467.648 -1.06877 474.733 -1.06878 479.103 3.20632L502.722 26.3122C507.093 30.5873 507.093 37.5186 502.722 41.7937C498.352 46.0688 491.267 46.0688 486.897 41.7937L463.278 18.6878Z" fill="#2B386D"/>
<path d="M141.278 18.6878C136.907 14.4127 136.907 7.48142 141.278 3.20632C145.648 -1.06877 152.733 -1.06878 157.103 3.20632L180.722 26.3122C185.093 30.5873 185.093 37.5186 180.722 41.7937C176.352 46.0688 169.267 46.0688 164.897 41.7937L141.278 18.6878Z" fill="white"/>
<path d="M601.278 18.6878C596.907 14.4127 596.907 7.48142 601.278 3.20632C605.648 -1.06877 612.733 -1.06878 617.103 3.20632L640.722 26.3122C645.093 30.5873 645.093 37.5186 640.722 41.7937C636.352 46.0688 629.267 46.0688 624.897 41.7937L601.278 18.6878Z" fill="white"/>
<path d="M95.2776 18.6878C90.9075 14.4127 90.9075 7.48142 95.2776 3.20632C99.6477 -1.06877 106.733 -1.06878 111.103 3.20632L134.722 26.3122C139.093 30.5873 139.093 37.5186 134.722 41.7937C130.352 46.0688 123.267 46.0688 118.897 41.7937L95.2776 18.6878Z" fill="#2B386D"/>
<path d="M371.278 18.6878C366.907 14.4127 366.907 7.48142 371.278 3.20632C375.648 -1.06877 382.733 -1.06878 387.103 3.20632L410.722 26.3122C415.093 30.5873 415.093 37.5186 410.722 41.7937C406.352 46.0688 399.267 46.0688 394.897 41.7937L371.278 18.6878Z" fill="white"/>
<path d="M49.2776 18.6878C44.9075 14.4127 44.9075 7.48142 49.2776 3.20632C53.6477 -1.06877 60.733 -1.06878 65.1031 3.20632L88.7224 26.3122C93.0925 30.5873 93.0925 37.5186 88.7224 41.7937C84.3523 46.0688 77.267 46.0688 72.8969 41.7937L49.2776 18.6878Z" fill="#2B386D"/>
<path d="M555.278 18.6878C550.907 14.4127 550.907 7.48142 555.278 3.20632C559.648 -1.06877 566.733 -1.06878 571.103 3.20632L594.722 26.3122C599.093 30.5873 599.093 37.5186 594.722 41.7937C590.352 46.0688 583.267 46.0688 578.897 41.7937L555.278 18.6878Z" fill="#2B386D"/>
<path d="M279.278 18.6878C274.907 14.4127 274.907 7.48142 279.278 3.20632C283.648 -1.06877 290.733 -1.06878 295.103 3.20632L318.722 26.3122C323.093 30.5873 323.093 37.5186 318.722 41.7937C314.352 46.0688 307.267 46.0688 302.897 41.7937L279.278 18.6878Z" fill="#2B386D"/>
<path d="M509.278 18.6878C504.907 14.4127 504.907 7.48142 509.278 3.20632C513.648 -1.06877 520.733 -1.06878 525.103 3.20632L548.722 26.3122C553.093 30.5873 553.093 37.5186 548.722 41.7937C544.352 46.0688 537.267 46.0688 532.897 41.7937L509.278 18.6878Z" fill="#2B386D"/>
<path d="M233.278 18.6878C228.907 14.4127 228.907 7.48142 233.278 3.20632C237.648 -1.06877 244.733 -1.06878 249.103 3.20632L272.722 26.3122C277.093 30.5873 277.093 37.5186 272.722 41.7937C268.352 46.0688 261.267 46.0688 256.897 41.7937L233.278 18.6878Z" fill="#802836"/>
<path fill-rule="evenodd" clip-rule="evenodd" d="M187.278 18.6878C182.907 14.4127 182.907 7.48142 187.278 3.20632C191.648 -1.06877 198.733 -1.06878 203.103 3.20632L205.02 5.08164C203.754 5.11742 202.592 5.13473 201.532 5.13473C200.724 5.13473 199.971 5.11136 199.272 5.06737C198.573 5.022 197.929 5 197.341 5C195.136 5 193.346 5.50593 191.969 6.51916C190.592 7.53101 189.904 8.95118 189.904 10.7783C189.904 13.5086 191.386 15.2656 194.349 16.0507C193.82 16.9044 193.343 17.7169 192.919 18.4854C192.495 19.2553 192.089 19.973 191.699 20.6384C191.38 21.1818 191.082 21.6824 190.808 22.1411L187.278 18.6878ZM205.288 5.73139L205.249 5.30574L220.042 19.7769C219.701 19.7546 219.346 19.7434 218.978 19.7434C218.345 19.7434 217.643 19.7626 216.874 19.8025C216.104 19.8424 215.307 19.8616 214.483 19.8616C213.257 19.8616 212.002 19.8424 210.714 19.8025L210.745 20.4432L212.6 21.0247C212.829 21.1031 212.949 21.2722 212.959 21.5306C212.969 21.8578 212.976 22.2249 212.981 22.6318C212.985 23.0388 212.988 23.4966 212.988 24.0025V36.0829C212.988 36.6796 212.985 37.2226 212.981 37.7134C212.976 38.2056 212.969 38.6496 212.959 39.047C212.948 39.2752 212.814 39.4292 212.554 39.5089L210.713 40.0602L210.772 40.7009C212.039 40.6706 213.297 40.6555 214.484 40.6555C215.671 40.6555 216.988 40.6706 218.435 40.7009L218.404 40.0602L216.339 39.4347C216.089 39.3549 215.959 39.2009 215.95 38.9727C215.94 38.5947 215.932 38.1685 215.927 37.6914C215.923 37.2144 215.921 36.6782 215.921 36.0829L215.922 36.0843V31.8389C216.718 31.9282 217.464 31.9736 218.16 31.9736C220.69 31.9736 222.656 31.3811 224.057 30.2001C225.341 29.1158 226.037 27.6313 226.143 25.7457L226.722 26.3122C231.093 30.5873 231.093 37.5186 226.722 41.7937C222.352 46.0688 215.267 46.0688 210.897 41.7937L192.926 24.2135C193.024 24.0739 193.121 23.9257 193.219 23.7688C193.684 23.0236 194.165 22.1905 194.664 21.2666C195.002 20.67 195.33 20.0623 195.643 19.4409C195.958 18.8209 196.29 18.2091 196.639 17.6028C196.759 17.3938 196.866 17.2179 196.961 17.0735C197.055 16.9292 197.158 16.8123 197.268 16.7229C197.377 16.6336 197.504 16.5731 197.649 16.5373C197.794 16.503 197.976 16.4851 198.196 16.4851H198.197H200.083V21.356C200.083 21.9513 200.08 22.4875 200.075 22.9645C200.069 23.4416 200.062 23.8691 200.052 24.2458C200.032 24.5538 199.902 24.7421 199.663 24.8123L197.957 25.3333L198.016 25.974C199.124 25.9437 200.282 25.9286 201.518 25.9286C202.754 25.9286 204.013 25.9437 205.289 25.974L205.259 25.3333L203.448 24.782C203.188 24.7023 203.053 24.5428 203.043 24.305C203.033 23.8884 203.025 23.4416 203.021 22.9645C203.015 22.4875 203.013 21.9513 203.013 21.356V9.35125C203.013 8.83432 203.015 8.37239 203.021 7.96545C203.025 7.55851 203.033 7.18181 203.043 6.83398C203.062 6.5659 203.183 6.39267 203.402 6.31294L205.288 5.73139ZM200.081 6.34181C199.355 6.26207 198.693 6.2222 198.095 6.2222C196.399 6.2222 195.156 6.5824 194.365 7.30279C193.575 8.02319 193.182 9.15602 193.182 10.7054C193.182 12.3346 193.619 13.5251 194.498 14.2799C195.377 15.0347 196.712 15.4114 198.507 15.4114C199.114 15.4114 199.639 15.4072 200.081 15.3962V6.34318V6.34181ZM217.986 30.7652C217.307 30.7652 216.62 30.706 215.921 30.5864H215.919V21.0838C216.599 21.0041 217.272 20.9642 217.94 20.9642C219.646 20.9642 220.895 21.3615 221.689 22.1562C222.482 22.9508 222.878 24.0891 222.878 25.776C222.878 27.4629 222.463 28.7167 221.63 29.5361C220.797 30.3555 219.583 30.7652 217.986 30.7652Z" fill="white"/>
<path d="M325.278 18.6878C320.907 14.4127 320.907 7.48142 325.278 3.20632C329.648 -1.06877 336.733 -1.06878 341.103 3.20632L364.722 26.3122C369.093 30.5873 369.093 37.5186 364.722 41.7937C360.352 46.0688 353.267 46.0688 348.897 41.7937L325.278 18.6878Z" fill="#802836"/>
<path fill-rule="evenodd" clip-rule="evenodd" d="M647.278 18.6878C642.907 14.4127 642.907 7.48142 647.278 3.20632C651.648 -1.06877 658.733 -1.06878 663.103 3.20632L665.02 5.08164C663.754 5.11742 662.592 5.13473 661.532 5.13473C660.724 5.13473 659.971 5.11136 659.272 5.06737C658.573 5.022 657.929 5 657.341 5C655.136 5 653.346 5.50593 651.969 6.51916C650.592 7.53101 649.904 8.95118 649.904 10.7783C649.904 13.5086 651.386 15.2656 654.349 16.0507C653.82 16.9044 653.343 17.7169 652.919 18.4854C652.495 19.2553 652.089 19.973 651.699 20.6384C651.38 21.1818 651.082 21.6824 650.808 22.1411L647.278 18.6878ZM665.288 5.73139L665.249 5.30574L680.042 19.7769C679.701 19.7546 679.346 19.7434 678.978 19.7434C678.345 19.7434 677.643 19.7626 676.874 19.8025C676.104 19.8424 675.307 19.8616 674.483 19.8616C673.257 19.8616 672.002 19.8424 670.714 19.8025L670.745 20.4432L672.6 21.0247C672.829 21.1031 672.949 21.2722 672.959 21.5306C672.969 21.8578 672.976 22.2249 672.981 22.6318C672.985 23.0388 672.988 23.4966 672.988 24.0025V36.0829C672.988 36.6796 672.985 37.2226 672.981 37.7134C672.976 38.2056 672.969 38.6496 672.959 39.047C672.948 39.2752 672.814 39.4292 672.554 39.5089L670.713 40.0602L670.772 40.7009C672.039 40.6706 673.297 40.6555 674.484 40.6555C675.671 40.6555 676.988 40.6706 678.435 40.7009L678.404 40.0602L676.339 39.4347C676.089 39.3549 675.959 39.2009 675.95 38.9727C675.94 38.5947 675.932 38.1685 675.927 37.6914C675.923 37.2144 675.921 36.6782 675.921 36.0829L675.922 36.0843V31.8389C676.718 31.9282 677.464 31.9736 678.16 31.9736C680.69 31.9736 682.656 31.3811 684.057 30.2001C685.341 29.1158 686.037 27.6313 686.143 25.7457L686.722 26.3122C691.093 30.5873 691.093 37.5186 686.722 41.7937C682.352 46.0688 675.267 46.0688 670.897 41.7937L652.926 24.2135C653.024 24.0739 653.121 23.9257 653.219 23.7688C653.684 23.0236 654.165 22.1905 654.664 21.2666C655.002 20.67 655.33 20.0623 655.643 19.4409C655.958 18.8209 656.29 18.2091 656.639 17.6028C656.759 17.3938 656.866 17.2179 656.961 17.0735C657.055 16.9292 657.158 16.8123 657.268 16.7229C657.377 16.6336 657.504 16.5731 657.649 16.5373C657.794 16.503 657.976 16.4851 658.196 16.4851H658.197H660.083V21.356C660.083 21.9513 660.08 22.4875 660.075 22.9645C660.069 23.4416 660.062 23.8691 660.052 24.2458C660.032 24.5538 659.902 24.7421 659.663 24.8123L657.957 25.3333L658.016 25.974C659.124 25.9437 660.282 25.9286 661.518 25.9286C662.754 25.9286 664.013 25.9437 665.289 25.974L665.259 25.3333L663.448 24.782C663.188 24.7023 663.053 24.5428 663.043 24.305C663.033 23.8884 663.025 23.4416 663.021 22.9645C663.015 22.4875 663.013 21.9513 663.013 21.356V9.35125C663.013 8.83432 663.015 8.37239 663.021 7.96545C663.025 7.55851 663.033 7.18181 663.043 6.83398C663.062 6.5659 663.183 6.39267 663.402 6.31294L665.288 5.73139ZM660.081 6.34181C659.355 6.26207 658.693 6.2222 658.095 6.2222C656.399 6.2222 655.156 6.5824 654.365 7.30279C653.575 8.02319 653.182 9.15602 653.182 10.7054C653.182 12.3346 653.619 13.5251 654.498 14.2799C655.377 15.0347 656.712 15.4114 658.507 15.4114C659.114 15.4114 659.639 15.4072 660.081 15.3962V6.34318V6.34181ZM677.986 30.7652C677.307 30.7652 676.62 30.706 675.921 30.5864H675.919V21.0838C676.599 21.0041 677.272 20.9642 677.94 20.9642C679.646 20.9642 680.895 21.3615 681.689 22.1562C682.482 22.9508 682.878 24.0891 682.878 25.776C682.878 27.4629 682.463 28.7167 681.63 29.5361C680.797 30.3555 679.583 30.7652 677.986 30.7652Z" fill="white"/>
<path fill-rule="evenodd" clip-rule="evenodd" d="M417.278 18.6878C412.907 14.4127 412.907 7.48142 417.278 3.20632C421.648 -1.06877 428.733 -1.06878 433.103 3.20632L435.02 5.08164C433.754 5.11742 432.592 5.13473 431.532 5.13473C430.724 5.13473 429.971 5.11136 429.272 5.06737C428.573 5.022 427.929 5 427.341 5C425.136 5 423.346 5.50593 421.969 6.51916C420.592 7.53101 419.904 8.95118 419.904 10.7783C419.904 13.5086 421.386 15.2656 424.349 16.0507C423.82 16.9044 423.343 17.7169 422.919 18.4854C422.495 19.2553 422.089 19.973 421.699 20.6384C421.38 21.1818 421.082 21.6824 420.808 22.1411L417.278 18.6878ZM435.288 5.73139L435.249 5.30574L450.042 19.7769C449.701 19.7546 449.346 19.7434 448.978 19.7434C448.345 19.7434 447.643 19.7626 446.874 19.8025C446.104 19.8424 445.307 19.8616 444.483 19.8616C443.257 19.8616 442.002 19.8424 440.714 19.8025L440.745 20.4432L442.6 21.0247C442.829 21.1031 442.949 21.2722 442.959 21.5306C442.969 21.8578 442.976 22.2249 442.981 22.6318C442.985 23.0388 442.988 23.4966 442.988 24.0025V36.0829C442.988 36.6796 442.985 37.2226 442.981 37.7134C442.976 38.2056 442.969 38.6496 442.959 39.047C442.948 39.2752 442.814 39.4292 442.554 39.5089L440.713 40.0602L440.772 40.7009C442.039 40.6706 443.297 40.6555 444.484 40.6555C445.671 40.6555 446.988 40.6706 448.435 40.7009L448.404 40.0602L446.339 39.4347C446.089 39.3549 445.959 39.2009 445.95 38.9727C445.94 38.5947 445.932 38.1685 445.927 37.6914C445.923 37.2144 445.921 36.6782 445.921 36.0829L445.922 36.0843V31.8389C446.718 31.9282 447.464 31.9736 448.16 31.9736C450.69 31.9736 452.656 31.3811 454.057 30.2001C455.341 29.1158 456.037 27.6313 456.143 25.7457L456.722 26.3122C461.093 30.5873 461.093 37.5186 456.722 41.7937C452.352 46.0688 445.267 46.0688 440.897 41.7937L422.926 24.2135C423.024 24.0739 423.121 23.9257 423.219 23.7688C423.684 23.0236 424.165 22.1905 424.664 21.2666C425.002 20.67 425.33 20.0623 425.643 19.4409C425.958 18.8209 426.29 18.2091 426.639 17.6028C426.759 17.3938 426.866 17.2179 426.961 17.0735C427.055 16.9292 427.158 16.8123 427.268 16.7229C427.377 16.6336 427.504 16.5731 427.649 16.5373C427.794 16.503 427.976 16.4851 428.196 16.4851H428.197H430.083V21.356C430.083 21.9513 430.08 22.4875 430.075 22.9645C430.069 23.4416 430.062 23.8691 430.052 24.2458C430.032 24.5538 429.902 24.7421 429.663 24.8123L427.957 25.3333L428.016 25.974C429.124 25.9437 430.282 25.9286 431.518 25.9286C432.754 25.9286 434.013 25.9437 435.289 25.974L435.259 25.3333L433.448 24.782C433.188 24.7023 433.053 24.5428 433.043 24.305C433.033 23.8884 433.025 23.4416 433.021 22.9645C433.015 22.4875 433.013 21.9513 433.013 21.356V9.35125C433.013 8.83432 433.015 8.37239 433.021 7.96545C433.025 7.55851 433.033 7.18181 433.043 6.83398C433.062 6.5659 433.183 6.39267 433.402 6.31294L435.288 5.73139ZM430.081 6.34181C429.355 6.26207 428.693 6.2222 428.095 6.2222C426.399 6.2222 425.156 6.5824 424.365 7.30279C423.575 8.02319 423.182 9.15602 423.182 10.7054C423.182 12.3346 423.619 13.5251 424.498 14.2799C425.377 15.0347 426.712 15.4114 428.507 15.4114C429.114 15.4114 429.639 15.4072 430.081 15.3962V6.34318V6.34181ZM447.986 30.7652C447.307 30.7652 446.62 30.706 445.921 30.5864H445.919V21.0838C446.599 21.0041 447.272 20.9642 447.94 20.9642C449.646 20.9642 450.895 21.3615 451.689 22.1562C452.482 22.9508 452.878 24.0891 452.878 25.776C452.878 27.4629 452.463 28.7167 451.63 29.5361C450.797 30.3555 449.583 30.7652 447.986 30.7652Z" fill="white"/>
</svg>
