<svg width="690" height="45" viewBox="0 0 690 45" fill="none" xmlns="http://www.w3.org/2000/svg">
<path d="M95.2776 18.6878C90.9075 14.4127 90.9075 7.48142 95.2776 3.20632C99.6477 -1.06877 106.733 -1.06878 111.103 3.20632L134.722 26.3122C139.093 30.5873 139.093 37.5186 134.722 41.7937C130.352 46.0688 123.267 46.0688 118.897 41.7937L95.2776 18.6878Z" fill="#2B386D"/>
<path d="M463.278 18.6878C458.907 14.4127 458.907 7.48142 463.278 3.20632C467.648 -1.06877 474.733 -1.06878 479.103 3.20632L502.722 26.3122C507.093 30.5873 507.093 37.5186 502.722 41.7937C498.352 46.0688 491.267 46.0688 486.897 41.7937L463.278 18.6878Z" fill="#802836"/>
<path d="M233.278 18.6878C228.907 14.4127 228.907 7.48142 233.278 3.20632C237.648 -1.06877 244.733 -1.06878 249.103 3.20632L272.722 26.3122C277.093 30.5873 277.093 37.5186 272.722 41.7937C268.352 46.0688 261.267 46.0688 256.897 41.7937L233.278 18.6878Z" fill="white"/>
<path d="M279.278 18.6878C274.907 14.4127 274.907 7.48142 279.278 3.20632C283.648 -1.06877 290.733 -1.06878 295.103 3.20632L318.722 26.3122C323.093 30.5873 323.093 37.5186 318.722 41.7937C314.352 46.0688 307.267 46.0688 302.897 41.7937L279.278 18.6878Z" fill="#802836"/>
<path d="M325.278 18.6878C320.907 14.4127 320.907 7.48142 325.278 3.20632C329.648 -1.06877 336.733 -1.06878 341.103 3.20632L364.722 26.3122C369.093 30.5873 369.093 37.5186 364.722 41.7937C360.352 46.0688 353.267 46.0688 348.897 41.7937L325.278 18.6878Z" fill="#2B386D"/>
<path d="M371.278 18.6878C366.907 14.4127 366.907 7.48142 371.278 3.20632C375.648 -1.06877 382.733 -1.06878 387.103 3.20632L410.722 26.3122C415.093 30.5873 415.093 37.5186 410.722 41.7937C406.352 46.0688 399.267 46.0688 394.897 41.7937L371.278 18.6878Z" fill="#802836"/>
<path d="M417.278 18.6878C412.907 14.4127 412.907 7.48142 417.278 3.20632C421.648 -1.06877 428.733 -1.06878 433.103 3.20632L456.722 26.3122C461.093 30.5873 461.093 37.5186 456.722 41.7937C452.352 46.0688 445.267 46.0688 440.897 41.7937L417.278 18.6878Z" fill="white"/>
<path d="M187.278 18.6878C182.907 14.4127 182.907 7.48142 187.278 3.20632C191.648 -1.06877 198.733 -1.06878 203.103 3.20632L226.722 26.3122C231.093 30.5873 231.093 37.5186 226.722 41.7937C222.352 46.0688 215.267 46.0688 210.897 41.7937L187.278 18.6878Z" fill="#802836"/>
<path d="M141.278 18.6878C136.907 14.4127 136.907 7.48142 141.278 3.20632C145.648 -1.06877 152.733 -1.06878 157.103 3.20632L180.722 26.3122C185.093 30.5873 185.093 37.5186 180.722 41.7937C176.352 46.0688 169.267 46.0688 164.897 41.7937L141.278 18.6878Z" fill="#802836"/>
<path d="M555.278 18.6878C550.907 14.4127 550.907 7.48142 555.278 3.20632C559.648 -1.06877 566.733 -1.06878 571.103 3.20632L594.722 26.3122C599.093 30.5873 599.093 37.5186 594.722 41.7937C590.352 46.0688 583.267 46.0688 578.897 41.7937L555.278 18.6878Z" fill="#2B386D"/>
<path d="M49.2776 18.6878C44.9075 14.4127 44.9075 7.48142 49.2776 3.20632C53.6477 -1.06877 60.733 -1.06878 65.1031 3.20632L88.7224 26.3122C93.0925 30.5873 93.0925 37.5186 88.7224 41.7937C84.3523 46.0688 77.267 46.0688 72.8969 41.7937L49.2776 18.6878Z" fill="#802836"/>
<path d="M647.278 18.6878C642.907 14.4127 642.907 7.48142 647.278 3.20632C651.648 -1.06877 658.733 -1.06878 663.103 3.20632L686.722 26.3122C691.093 30.5873 691.093 37.5186 686.722 41.7937C682.352 46.0688 675.267 46.0688 670.897 41.7937L647.278 18.6878Z" fill="white"/>
<path d="M509.278 18.6878C504.907 14.4127 504.907 7.48142 509.278 3.20632C513.648 -1.06877 520.733 -1.06878 525.103 3.20632L548.722 26.3122C553.093 30.5873 553.093 37.5186 548.722 41.7937C544.352 46.0688 537.267 46.0688 532.897 41.7937L509.278 18.6878Z" fill="#802836"/>
<path d="M601.278 18.6878C596.907 14.4127 596.907 7.48142 601.278 3.20632C605.648 -1.06877 612.733 -1.06878 617.103 3.20632L640.722 26.3122C645.093 30.5873 645.093 37.5186 640.722 41.7937C636.352 46.0688 629.267 46.0688 624.897 41.7937L601.278 18.6878Z" fill="#802836"/>
<path d="M3.27757 18.6878C-1.09253 14.4127 -1.09252 7.48142 3.27758 3.20632C7.64768 -1.06877 14.733 -1.06878 19.1031 3.20632L42.7224 26.3122C47.0925 30.5873 47.0925 37.5186 42.7224 41.7937C38.3523 46.0688 31.267 46.0688 26.8969 41.7937L3.27757 18.6878Z" fill="#802836"/>
</svg>
