<svg width="40" height="37" viewBox="0 0 40 37" fill="none" xmlns="http://www.w3.org/2000/svg">
<path d="M11.1939 12.3857C10.9743 12.3857 10.7919 12.4036 10.6469 12.438C10.5019 12.4737 10.3748 12.5342 10.2656 12.6236C10.1565 12.7129 10.0529 12.8298 9.95899 12.9741C9.86367 13.1185 9.75731 13.2945 9.63713 13.5034C9.28765 14.1097 8.95612 14.7215 8.64118 15.3415C8.32761 15.963 8.00023 16.5706 7.6618 17.1673C7.16313 18.0912 6.68242 18.9243 6.2169 19.6694C5.75276 20.4146 5.29139 20.9645 4.83278 21.3219C4.64354 21.4704 4.45429 21.5955 4.26367 21.6945C4.07304 21.7935 3.85893 21.8705 3.61996 21.9241C3.38098 21.9791 3.10609 22.0162 2.79667 22.0355C2.48725 22.0547 2.12809 22.0657 1.71921 22.0657C1.22054 22.0657 0.661097 22.0258 0.0436315 21.9461L-0.00195312 21.2903C0.257741 21.2202 0.492571 21.157 0.701156 21.0965C0.911121 21.0373 1.10589 20.9672 1.28547 20.8875C1.46504 20.8078 1.63633 20.7115 1.80209 20.5974C1.96648 20.4833 2.14329 20.3321 2.33253 20.1437C2.67235 19.8055 3.0315 19.3243 3.40999 18.6988C3.78848 18.0733 4.21808 17.3543 4.69741 16.539C5.08695 15.8736 5.49307 15.1559 5.91715 14.3861C6.34122 13.6175 6.81779 12.805 7.34685 11.9513C4.38384 11.1663 2.90165 9.40928 2.90165 6.67892C2.90165 4.85181 3.58957 3.43164 4.96677 2.41979C6.34398 1.40656 8.13422 0.900635 10.3389 0.900635C10.9273 0.900635 11.571 0.922632 12.27 0.968C12.969 1.01199 13.7218 1.03537 14.5299 1.03537C15.6474 1.03537 16.8796 1.01612 18.2264 0.976249L18.2858 1.63203L16.4002 2.21357C16.1806 2.29331 16.0604 2.46653 16.0411 2.73462C16.0314 3.08244 16.0231 3.45914 16.019 3.86608C16.0135 4.27302 16.0107 4.73496 16.0107 5.25188V17.2566C16.0107 17.8519 16.0135 18.3881 16.019 18.8652C16.0231 19.3422 16.0314 19.789 16.0411 20.2056C16.0508 20.4434 16.1861 20.6029 16.4458 20.6826L18.2568 21.2339L18.2872 21.8746C17.0108 21.8444 15.7524 21.8292 14.5161 21.8292C13.2798 21.8292 12.1222 21.8444 11.0143 21.8746L10.9549 21.2339L12.6609 20.7129C12.8999 20.6428 13.0297 20.4544 13.0505 20.1465C13.0601 19.7698 13.067 19.3422 13.0726 18.8652C13.0781 18.3881 13.0808 17.8519 13.0808 17.2566V12.3857H11.1953H11.1939ZM13.0795 2.24244C12.3529 2.1627 11.6912 2.12283 11.0931 2.12283C9.39678 2.12283 8.15356 2.48303 7.36342 3.20343C6.57329 3.92382 6.1796 5.05666 6.1796 6.60606C6.1796 8.2352 6.61749 9.42578 7.49603 10.1805C8.37457 10.9353 9.71034 11.312 11.5047 11.312C12.1125 11.312 12.6374 11.3079 13.0795 11.2969V2.24382V2.24244Z" fill="#0E1132"/>
<path d="M28.9186 31.9836C28.9186 32.5788 28.9214 33.115 28.9255 33.5921C28.9297 34.0691 28.938 34.4953 28.9476 34.8734C28.9573 35.1016 29.0872 35.2556 29.3372 35.3353L31.4023 35.9609L31.4327 36.6015C29.9864 36.5713 28.6686 36.5561 27.482 36.5561C26.2954 36.5561 25.037 36.5713 23.7703 36.6015L23.7109 35.9609L25.5523 35.4096C25.812 35.3298 25.946 35.1758 25.957 34.9476C25.9667 34.5503 25.9736 34.1062 25.9791 33.6141C25.9833 33.1233 25.986 32.5802 25.986 31.9836V19.9032C25.986 19.3973 25.9833 18.9394 25.9791 18.5325C25.9736 18.1256 25.9667 17.7585 25.957 17.4313C25.9473 17.1728 25.8272 17.0037 25.5979 16.9254L23.7427 16.3438L23.7123 15.7032C24.9997 15.743 26.2554 15.7623 27.4806 15.7623C28.3053 15.7623 29.1024 15.743 29.8718 15.7032C30.6412 15.6633 31.3429 15.644 31.9756 15.644C34.3391 15.644 36.1265 16.1032 37.338 17.0216C38.5494 17.94 39.1558 19.3079 39.1558 21.1254C39.1558 23.2604 38.4555 24.9185 37.0548 26.1008C35.6541 27.2817 33.6885 27.8743 31.1578 27.8743C30.4616 27.8743 29.7157 27.8289 28.92 27.7395V31.9849L28.9186 31.9836ZM28.9186 26.4871C29.6176 26.6067 30.3055 26.6658 30.9838 26.6658C32.5806 26.6658 33.7948 26.2561 34.6278 25.4368C35.4607 24.6174 35.8765 23.3636 35.8765 21.6767C35.8765 19.9898 35.4801 18.8515 34.6872 18.0568C33.8929 17.2622 32.6441 16.8649 30.9382 16.8649C30.2696 16.8649 29.5969 16.9047 28.9173 16.9845V26.4871H28.9186Z" fill="#0E1132"/>
</svg>
