<svg width="50" height="50" viewBox="0 0 50 50" fill="none" xmlns="http://www.w3.org/2000/svg">
<rect width="50" height="50" rx="25" transform="matrix(-1 0 0 1 50 0)" fill="#802836"/>
<g clip-path="url(#clip0_15_267)">
<path d="M31.364 30.3639L25 36.7279L18.636 30.3639C17.3773 29.1052 16.5202 27.5016 16.1729 25.7558C15.8257 24.0099 16.0039 22.2004 16.6851 20.5558C17.3663 18.9113 18.5198 17.5057 19.9999 16.5168C21.4799 15.5278 23.22 15 25 15C26.78 15 28.5201 15.5278 30.0001 16.5168C31.4802 17.5057 32.6337 18.9113 33.3149 20.5558C33.9961 22.2004 34.1743 24.0099 33.8271 25.7558C33.4798 27.5016 32.6227 29.1052 31.364 30.3639ZM25 25.9999C25.5304 25.9999 26.0391 25.7892 26.4142 25.4141C26.7893 25.0391 27 24.5304 27 23.9999C27 23.4695 26.7893 22.9608 26.4142 22.5857C26.0391 22.2106 25.5304 21.9999 25 21.9999C24.4696 21.9999 23.9609 22.2106 23.5858 22.5857C23.2107 22.9608 23 23.4695 23 23.9999C23 24.5304 23.2107 25.0391 23.5858 25.4141C23.9609 25.7892 24.4696 25.9999 25 25.9999Z" fill="white"/>
</g>
<defs>
<clipPath id="clip0_15_267">
<rect width="24" height="24" fill="white" transform="translate(13 13)"/>
</clipPath>
</defs>
</svg>
