<svg width="48" height="48" viewBox="0 0 48 48" fill="none" xmlns="http://www.w3.org/2000/svg">
<g clip-path="url(#clip0_259_14039)">
<path d="M24 28V44H8C8 39.7565 9.68571 35.6869 12.6863 32.6863C15.6869 29.6857 19.7565 28 24 28ZM24 26C17.37 26 12 20.63 12 14C12 7.37 17.37 2 24 2C30.63 2 36 7.37 36 14C36 20.63 30.63 26 24 26ZM29.19 37.624C28.9364 36.5569 28.9364 35.4451 29.19 34.378L27.206 33.232L29.206 29.768L31.19 30.914C31.9863 30.1598 32.9489 29.6034 34 29.29V27H38V29.29C39.064 29.606 40.024 30.17 40.81 30.914L42.794 29.768L44.794 33.232L42.81 34.378C43.0633 35.4445 43.0633 36.5555 42.81 37.622L44.794 38.768L42.794 42.232L40.81 41.086C40.0137 41.8402 39.0511 42.3966 38 42.71V45H34V42.71C32.9489 42.3966 31.9863 41.8402 31.19 41.086L29.206 42.232L27.206 38.768L29.19 37.624ZM36 34C35.4696 34 34.9609 34.2107 34.5858 34.5858C34.2107 34.9609 34 35.4696 34 36C34 36.5304 34.2107 37.0391 34.5858 37.4142C34.9609 37.7893 35.4696 38 36 38C36.5304 38 37.0391 37.7893 37.4142 37.4142C37.7893 37.0391 38 36.5304 38 36C38 35.4696 37.7893 34.9609 37.4142 34.5858C37.0391 34.2107 36.5304 34 36 34Z" fill="#0E1132"/>
</g>
<defs>
<clipPath id="clip0_259_14039">
<rect width="48" height="48" fill="white"/>
</clipPath>
</defs>
</svg>
