<svg width="48" height="48" viewBox="0 0 48 48" fill="none" xmlns="http://www.w3.org/2000/svg">
<g clip-path="url(#clip0_259_14051)">
<path d="M24 28V44H8C8 39.7565 9.68571 35.6869 12.6863 32.6863C15.6869 29.6857 19.7565 28 24 28ZM24 26C17.37 26 12 20.63 12 14C12 7.37 17.37 2 24 2C30.63 2 36 7.37 36 14C36 20.63 30.63 26 24 26Z" fill="#0E1132"/>
<path d="M37.2232 31.2223L41 35L31.7768 44H28V40.2223L37.2232 31.2223ZM38.0732 30.15L39.9616 28.2607C40.1286 28.0938 40.355 28 40.5911 28C40.8272 28 41.0536 28.0938 41.2206 28.2607L43.7393 30.7794C43.9062 30.9464 44 31.1728 44 31.4089C44 31.645 43.9062 31.8714 43.7393 32.0384L41.85 33.9268L38.0732 30.15Z" fill="#0E1132"/>
</g>
<defs>
<clipPath id="clip0_259_14051">
<rect width="48" height="48" fill="white"/>
</clipPath>
</defs>
</svg>
