<svg width="48" height="48" viewBox="0 0 48 48" fill="none" xmlns="http://www.w3.org/2000/svg">
<g clip-path="url(#clip0_259_14043)">
<path d="M24 28V44H8C8 39.7565 9.68571 35.6869 12.6863 32.6863C15.6869 29.6857 19.7565 28 24 28ZM24 26C17.37 26 12 20.63 12 14C12 7.37 17.37 2 24 2C30.63 2 36 7.37 36 14C36 20.63 30.63 26 24 26ZM42.892 40.064L45.9 43.072L43.072 45.9L40.064 42.892C38.3867 43.881 36.4062 44.2243 34.4939 43.8575C32.5816 43.4908 30.8687 42.4392 29.6763 40.8998C28.4838 39.3605 27.8938 37.4391 28.0167 35.4958C28.1396 33.5525 28.967 31.7207 30.3439 30.3439C31.7207 28.967 33.5525 28.1396 35.4958 28.0167C37.4391 27.8938 39.3605 28.4838 40.8998 29.6763C42.4392 30.8687 43.4908 32.5816 43.8575 34.4939C44.2243 36.4062 43.881 38.3867 42.892 40.064ZM36 40C37.0609 40 38.0783 39.5786 38.8284 38.8284C39.5786 38.0783 40 37.0609 40 36C40 34.9391 39.5786 33.9217 38.8284 33.1716C38.0783 32.4214 37.0609 32 36 32C34.9391 32 33.9217 32.4214 33.1716 33.1716C32.4214 33.9217 32 34.9391 32 36C32 37.0609 32.4214 38.0783 33.1716 38.8284C33.9217 39.5786 34.9391 40 36 40Z" fill="#0E1132"/>
</g>
<defs>
<clipPath id="clip0_259_14043">
<rect width="48" height="48" fill="white"/>
</clipPath>
</defs>
</svg>
