<svg width="48" height="48" viewBox="0 0 48 48" fill="none" xmlns="http://www.w3.org/2000/svg">
<g clip-path="url(#clip0_259_14034)">
<path d="M2 44C2 39.7565 3.68571 35.6869 6.68629 32.6863C9.68687 29.6857 13.7565 28 18 28C22.2435 28 26.3131 29.6857 29.3137 32.6863C32.3143 35.6869 34 39.7565 34 44H2ZM18 26C11.37 26 6 20.63 6 14C6 7.37 11.37 2 18 2C24.63 2 30 7.37 30 14C30 20.63 24.63 26 18 26Z" fill="#0E1132"/>
<path d="M41.138 14C41.1347 11.3817 41.6471 8.78831 42.646 6.36799L45.998 8.80799C45.4264 10.4792 45.1358 12.2337 45.138 14C45.1364 15.7664 45.4277 17.5209 46 19.192L42.646 21.632C41.6471 19.2117 41.1347 16.6183 41.138 14Z" fill="#0E1132"/>
<path d="M33.138 14C33.1315 9.68718 34.1256 5.43165 36.042 1.56799L39.332 3.95999C37.924 7.01399 37.138 10.416 37.138 14C37.133 17.4661 37.8816 20.8919 39.332 24.04L36.042 26.432C34.184 22.688 33.138 18.466 33.138 14Z" fill="#0E1132"/>
</g>
<defs>
<clipPath id="clip0_259_14034">
<rect width="48" height="48" fill="white"/>
</clipPath>
</defs>
</svg>
