<svg width="48" height="48" viewBox="0 0 48 48" fill="none" xmlns="http://www.w3.org/2000/svg">
<g clip-path="url(#clip0_200_6462)">
<path d="M4 7.986C4.00366 7.46076 4.2138 6.95803 4.58503 6.58644C4.95625 6.21484 5.45876 6.00419 5.984 6H42.016C43.112 6 44 6.89 44 7.986V40.014C43.9963 40.5392 43.7862 41.042 43.415 41.4136C43.0438 41.7852 42.5412 41.9958 42.016 42H5.984C5.45763 41.9995 4.95299 41.79 4.58098 41.4176C4.20896 41.0452 4 40.5404 4 40.014V7.986ZM21.244 16.83C21.1236 16.7497 20.9837 16.7035 20.8392 16.6964C20.6947 16.6893 20.5509 16.7216 20.4233 16.7897C20.2956 16.8579 20.1889 16.9593 20.1143 17.0834C20.0398 17.2074 20.0003 17.3493 20 17.494V30.506C20.0003 30.6507 20.0398 30.7926 20.1143 30.9166C20.1889 31.0407 20.2956 31.1421 20.4233 31.2103C20.5509 31.2784 20.6947 31.3107 20.8392 31.3036C20.9837 31.2965 21.1236 31.2503 21.244 31.17L31.002 24.666C31.1117 24.593 31.2017 24.494 31.264 24.3778C31.3262 24.2616 31.3588 24.1318 31.3588 24C31.3588 23.8682 31.3262 23.7384 31.264 23.6222C31.2017 23.506 31.1117 23.407 31.002 23.334L21.242 16.83H21.244Z" fill="white"/>
</g>
<defs>
<clipPath id="clip0_200_6462">
<rect width="48" height="48" fill="white"/>
</clipPath>
</defs>
</svg>
