<svg width="18" height="16" viewBox="0 0 18 16" fill="none" xmlns="http://www.w3.org/2000/svg">
<path d="M16.7699 0.541919L0.468678 6.85001C0.458979 6.85374 0.449577 6.85821 0.440553 6.86336C0.308365 6.93825 -0.614135 7.5025 0.686646 8.0084L0.700006 8.01333L4.58161 9.26735C4.61122 9.27697 4.64258 9.28 4.67349 9.27624C4.7044 9.27247 4.73411 9.262 4.76055 9.24555L14.3881 3.23876C14.4117 3.22402 14.438 3.21411 14.4654 3.20958C14.5994 3.18743 14.985 3.14594 14.7411 3.45567C14.4651 3.80723 7.88911 9.70012 7.15926 10.3537C7.11718 10.3915 7.09114 10.4439 7.08649 10.5003L6.76797 14.2972C6.76793 14.3358 6.7769 14.374 6.79417 14.4086C6.81144 14.4432 6.83654 14.4733 6.86747 14.4965C6.91135 14.5241 6.96296 14.5369 7.01468 14.533C7.0664 14.5291 7.11548 14.5086 7.15469 14.4747L9.46094 12.4135C9.49738 12.3809 9.54385 12.3618 9.59265 12.3593C9.64144 12.3568 9.68962 12.3711 9.72919 12.3998L13.7528 15.3213L13.7658 15.33C13.8632 15.3902 14.9151 16.0022 15.2188 14.6354L17.9962 1.42891C18 1.38708 18.0377 0.927232 17.709 0.655474C17.3637 0.371411 16.875 0.514849 16.8016 0.530318C16.7907 0.533335 16.7801 0.537214 16.7699 0.541919Z" fill="#802836"/>
</svg>
